<?xml version="1.0" encoding="UTF-8" standalone="no"?>
<!-- Created with Inkscape (http://www.inkscape.org/) -->

<svg
   width="210mm"
   height="297mm"
   viewBox="0 0 210 297"
   version="1.1"
   id="svg1"
   xml:space="preserve"
   inkscape:version="1.3.2 (091e20e, 2023-11-25)"
   sodipodi:docname="favicon.svg"
   xmlns:inkscape="http://www.inkscape.org/namespaces/inkscape"
   xmlns:sodipodi="http://sodipodi.sourceforge.net/DTD/sodipodi-0.dtd"
   xmlns="http://www.w3.org/2000/svg"
   xmlns:svg="http://www.w3.org/2000/svg"><sodipodi:namedview
     id="namedview1"
     pagecolor="#ffffff"
     bordercolor="#000000"
     borderopacity="0.25"
     inkscape:showpageshadow="2"
     inkscape:pageopacity="0.0"
     inkscape:pagecheckerboard="0"
     inkscape:deskcolor="#d1d1d1"
     inkscape:document-units="mm"
     inkscape:zoom="0.55307887"
     inkscape:cx="392.34911"
     inkscape:cy="715.99192"
     inkscape:window-width="1512"
     inkscape:window-height="871"
     inkscape:window-x="0"
     inkscape:window-y="38"
     inkscape:window-maximized="1"
     inkscape:current-layer="layer1" /><defs
     id="defs1" /><g
     inkscape:label="Layer 1"
     inkscape:groupmode="layer"
     id="layer1"><path
       id="path4"
       style="display:inline;fill:#b19cd9;fill-opacity:1"
       d="m 71.73619,92.965902 c -24.455835,0.0223 -23.150824,0.294824 -25.710576,1.586983 -3.14398,1.587076 -5.822948,5.086934 -6.681246,8.728145 -0.492931,2.09121 -0.608562,78.81872 -0.121956,80.93046 0.998906,4.33503 4.488039,8.16061 8.776725,9.62267 1.61193,0.54949 2.096838,0.56534 19.446359,0.64544 9.786256,0.0452 17.794513,0.16573 17.795813,0.2682 0.0013,0.10246 -0.564226,2.52627 -1.256771,5.38572 l -1.259355,5.19865 -4.101042,0.0982 c -4.535183,0.10813 -5.180195,0.31263 -6.002734,1.90325 -0.854146,1.65174 -0.186464,4.15037 1.301729,4.87205 0.427598,0.20737 9.44474,0.27693 31.378444,0.24133 l 30.77797,-0.0501 0.90589,-0.98805 c 1.65271,-1.80349 1.07613,-4.74328 -1.1095,-5.6565 -0.6119,-0.25566 -2.04308,-0.3669 -4.71857,-0.3669 -3.76452,0 -3.84217,-0.0117 -3.97857,-0.59532 -0.0765,-0.32742 -0.65689,-2.73844 -1.28933,-5.35781 l -1.1498,-4.7625 17.75447,-0.13591 c 17.41366,-0.13327 17.78695,-0.14723 19.47375,-0.7183 4.53947,-1.53684 8.16331,-5.60342 8.99635,-10.09602 0.45309,-2.4435 0.34353,-77.79699 -0.11627,-79.96618 -0.99145,-4.677462 -4.28742,-8.403734 -8.91005,-10.07329 l -1.68982,-0.610299 -54.37188,-0.07131 c -14.973798,-0.01973 -25.988085,-0.03999 -34.14003,-0.03256 z m 69.62624,7.397998 c 10.22821,0.0381 17.223,0.11943 17.71985,0.25321 1.5256,0.4108 3.16475,1.80547 3.99872,3.40186 l 0.73897,1.41439 v 32.64607 32.64555 h -58.7375 -58.737495 l 0.0026,-32.6099 0.0026,-32.60989 0.621151,-1.33377 c 0.629798,-1.35248 1.67415,-2.41785 3.176034,-3.24011 0.744892,-0.40782 60.53048,-0.68165 91.2151,-0.56741 z m -95.017455,77.50483 h 58.737495 58.73802 l -0.003,1.91823 c -0.004,2.90649 -1.29361,5.26181 -3.56361,6.5071 -0.91875,0.504 -107.149796,0.77233 -109.254826,0.27595 -3.008438,-0.7094 -4.653979,-3.09014 -4.653979,-6.73396 z" /><path
       style="display:inline;fill:#b19cd9;fill-opacity:1"
       d="m 91.923095,160.51916 c -1.072556,-0.84533 -2.253469,-4.75724 -6.048677,-20.03696 l -0.972853,-3.91676 -1.352698,2.51394 c -2.664119,4.95117 -1.8266,4.68073 -14.410906,4.65338 -11.195336,-0.0243 -11.414449,-0.0446 -12.604342,-1.16683 -1.218358,-1.14906 -1.428159,-2.40821 -0.664207,-3.98632 0.975684,-2.0155 0.79895,-1.98582 11.827681,-1.98615 l 9.736576,-3e-4 1.428795,-2.57939 c 4.263706,-7.69724 4.932064,-8.52935 6.852573,-8.53153 2.371735,-0.003 3.074419,1.04107 4.630553,6.87818 0.678911,2.54661 1.818442,6.83286 2.532291,9.525 0.713849,2.69213 1.363121,4.71619 1.442825,4.49791 0.0797,-0.21828 1.101994,-3.84968 2.271755,-8.06979 3.919909,-14.14173 7.103549,-24.99879 7.514229,-25.62557 0.85449,-1.30412 3.18515,-1.87041 4.62772,-1.12443 1.63267,0.84428 1.28629,-0.0944 6.69796,18.15104 1.74806,5.8936 3.53802,11.87974 3.97769,13.30254 l 0.79939,2.58691 1.604,-2.7192 c 2.71663,-4.60543 3.48287,-5.72498 4.11556,-6.01325 1.33875,-0.60998 24.48795,-0.35856 25.29301,0.2747 2.04148,1.60583 1.90566,4.55164 -0.27578,5.98153 -0.66611,0.43662 -1.61072,0.48278 -11.05899,0.54036 -5.68187,0.0346 -10.44973,0.0654 -10.59525,0.0684 -0.14552,0.003 -1.69333,2.40258 -3.43958,5.33244 -3.91244,6.56429 -4.60246,7.36851 -6.32217,7.36851 -1.40559,0 -2.65177,-0.54043 -3.0766,-1.33423 -0.35526,-0.66382 -8.687,-27.55223 -9.05581,-29.22514 -0.091,-0.41269 -0.15121,-0.44181 -0.27366,-0.1323 -0.15239,0.38522 -5.59091,18.81548 -8.393052,28.44271 -2.048292,7.03725 -3.820521,8.6852 -6.808033,6.33062 z"
       id="path6" /><path
       style="display:none;fill:#d40000"
       d="m 120.35086,205.28663 c 0.0704,-0.0704 -0.94221,-4.30125 -2.33528,-9.75694 l -0.25335,-0.99219 H 105.11737 92.472512 l -1.278321,5.22552 c -0.703076,2.87403 -1.319964,5.34458 -1.370861,5.4901 -0.08381,0.23964 30.28806,0.27297 30.52753,0.0335 z"
       id="path3" /><path
       style="display:inline;fill:#6fc276;fill-opacity:1"
       d="M 21.668089,197.42752 C 17.620097,195.29079 10.117985,176.38341 7.8531959,162.61019 -3.0675882,96.195948 52.341843,39.435886 119.10554,48.646018 c 16.24881,2.241542 31.63733,8.646341 46.61233,19.400347 0.51942,0.373012 0.5227,0.326792 0.347,-4.894792 l -0.17738,-5.27136 0.72569,-1.094351 c 1.71388,-2.584547 5.42847,-2.61113 6.98599,-0.04999 0.65606,1.078796 0.71351,1.635269 1.34194,12.998141 0.82482,14.913788 2.00554,13.892448 -16.75591,14.494117 l -8.94222,0.286772 -1.2398,-0.617344 c -3.72197,-1.853308 -2.60393,-7.212107 1.61497,-7.740633 0.60781,-0.07614 2.9488,-0.230958 5.20222,-0.344034 l 4.09713,-0.205593 -3.70025,-2.401017 C 137.87642,61.954163 118.38885,56.795525 98.708542,58.247616 35.023739,62.946533 -2.2412141,129.65049 26.593917,187.33221 c 2.182017,4.3649 2.524014,5.55833 2.025598,7.06855 -0.992708,3.00793 -4.277505,4.43818 -6.951426,3.02676 z"
       id="path7" /><path
       style="display:inline;fill:#6fc276;fill-opacity:1"
       d="M 97.542002,245.33033 C 78.205406,243.60311 60.743638,236.7873 44.942679,224.79936 l -1.270159,-0.96365 0.211825,3.80558 c 0.530963,9.53907 -0.401553,11.89255 -4.441711,11.20997 -3.120032,-0.52712 -3.552109,-1.73515 -4.06785,-11.37314 -0.225823,-4.2201 -0.470909,-8.14917 -0.544635,-8.73125 -0.689418,-5.4431 0.222271,-8.36854 2.928646,-9.39751 0.635498,-0.24161 13.123176,-0.77483 19.315563,-0.82476 5.086053,-0.041 6.268234,0.50121 6.997507,3.20953 0.94621,3.51395 -1.167889,4.90896 -7.881052,5.20039 -4.925846,0.21384 -4.897728,0.17615 -1.739926,2.33235 30.469613,20.80514 68.377883,21.55905 98.172773,1.95243 38.80718,-25.53718 51.89628,-75.81155 30.44388,-116.93302 -2.83005,-5.424842 -0.2853,-10.101667 4.96098,-9.117458 4.73594,0.888467 12.72928,22.178868 14.85738,39.572848 7.48065,61.1432 -44.77359,115.99903 -105.343898,110.58866 z"
       id="path1" /></g></svg>
